# xmcd
#
# Track frame offsets: 
#        150
#        16862
#        34882
#        50227
#        69414
#        92093
#        106719
#        128825
#        147575
#        162844
#        177676
#
# Disc length: 2552 seconds
#
# Revision: 0
# Processed by: cddbd v1.5.2PL0 Copyright (c) Steve Scherf et al.
# Submitted via: ExactAudioCopy v0.99pb5
#
DISCID=9909f60b
DTITLE=Meschiya Lake and the Little Big Horns - Lucky Devil
DYEAR=2010
DGENRE=Acid Jazz
TTITLE0=I'm Alone Because I Love You
TTITLE1=I Ain't Got Nuthin but the Blues
TTITLE2=Do For Myself
TTITLE3=Slowburn
TTITLE4=Backwater Blues
TTITLE5=Comes Love
TTITLE6=Lucky Devil
TTITLE7=The Curse of an Aching Heart
TTITLE8=Sweet Substitute
TTITLE9=Gimme A Pigfoot
TTITLE10=Joseph! Joseph!
EXTD=
EXTT0=
EXTT1=
EXTT2=
EXTT3=
EXTT4=
EXTT5=
EXTT6=
EXTT7=
EXTT8=
EXTT9=
EXTT10=
PLAYORDER=
